<svg xmlns="http://www.w3.org/2000/svg" viewBox="0 0 980 250" width="980" height="250" role="img" aria-label="Developed by Akash Yadav, akashyadav110502@gmail.com, github.com/akxyverse"><defs><linearGradient id="edge" x1="0" y1="0" x2="1" y2="1"><stop offset="0%" stop-color="#3b82f6" stop-opacity=".85"/><stop offset="55%" stop-color="#a855f7" stop-opacity=".55"/><stop offset="100%" stop-color="#a855f7" stop-opacity=".8"/></linearGradient><linearGradient id="mark" x1="0" y1="0" x2="1" y2="1"><stop offset="0%" stop-color="#60a5fa"/><stop offset="100%" stop-color="#a855f7"/></linearGradient><linearGradient id="tile" x1="0" y1="0" x2="0" y2="1"><stop offset="0%" stop-color="#101a2e"/><stop offset="100%" stop-color="#0d1526"/></linearGradient></defs><rect width="980" height="250" rx="18" fill="#080b12"/><rect x="1.1" y="1.1" width="977.8" height="247.8" rx="17" fill="#0b0f1a" stroke="url(#edge)" stroke-width="1.4"/><rect x="40" y="38" width="92" height="92" rx="22.1" fill="url(#tile)" stroke="#1b2438"/><g transform="translate(60.2 58.2) scale(2.147)" fill="none" stroke="url(#mark)" stroke-width="1.9" stroke-linecap="round" stroke-linejoin="round"><path d="M8.6 8.4 4.6 12l4 3.6"/><path d="M15.4 8.4 19.4 12l-4 3.6"/><path d="M13.4 5.6 10.6 18.4"/></g><text x="160" y="78" font-family="ui-sans-serif,-apple-system,BlinkMacSystemFont,'Segoe UI',Roboto,Helvetica,Arial,sans-serif" font-size="34" font-weight="700" fill="#f1f5f9">Developed By</text><text x="160" y="112" font-family="ui-sans-serif,-apple-system,BlinkMacSystemFont,'Segoe UI',Roboto,Helvetica,Arial,sans-serif" font-size="20" fill="#94a3b8">The developer who built this project.</text><line x1="40" y1="152" x2="940" y2="152" stroke="#1b2438" stroke-width="1.2"/><g transform="translate(40.0 179.0) scale(0.860)" fill="none" stroke="#60a5fa" stroke-width="1.8" stroke-linecap="round" stroke-linejoin="round"><circle cx="12" cy="8" r="3.6"/><path d="M5.2 20c0-3.5 3-6.2 6.8-6.2s6.8 2.7 6.8 6.2"/></g><text x="70.0" y="194" font-family="ui-sans-serif,-apple-system,BlinkMacSystemFont,'Segoe UI',Roboto,Helvetica,Arial,sans-serif" font-size="19" font-weight="600" fill="#60a5fa">Developer</text><text x="40.0" y="228" font-family="ui-sans-serif,-apple-system,BlinkMacSystemFont,'Segoe UI',Roboto,Helvetica,Arial,sans-serif" font-size="19.0" fill="#cbd5e1">Akash Yadav</text><line x1="326.0" y1="170" x2="326.0" y2="228" stroke="#1b2438" stroke-width="1.2"/><g transform="translate(340.0 179.0) scale(0.860)" fill="none" stroke="#60a5fa" stroke-width="1.8" stroke-linecap="round" stroke-linejoin="round"><rect x="3.2" y="5.4" width="17.6" height="13.2" rx="2.2"/><path d="m3.6 7 8.4 6 8.4-6"/></g><text x="370.0" y="194" font-family="ui-sans-serif,-apple-system,BlinkMacSystemFont,'Segoe UI',Roboto,Helvetica,Arial,sans-serif" font-size="19" font-weight="600" fill="#60a5fa">Email</text><text x="340.0" y="228" font-family="ui-sans-serif,-apple-system,BlinkMacSystemFont,'Segoe UI',Roboto,Helvetica,Arial,sans-serif" font-size="19.0" fill="#cbd5e1">akashyadav110502@gmail.com</text><line x1="626.0" y1="170" x2="626.0" y2="228" stroke="#1b2438" stroke-width="1.2"/><g transform="translate(640.0 179.0) scale(0.860)" fill="none" stroke="#c084fc" stroke-width="1.8" stroke-linecap="round" stroke-linejoin="round"><path d="M6.4 6.6v10.8"/><circle cx="6.4" cy="4.6" r="2.1"/><circle cx="6.4" cy="19.4" r="2.1"/><circle cx="17.6" cy="6" r="2.1"/><path d="M17.6 8.1v3.3a4.4 4.4 0 0 1-4.4 4.4H8.5"/></g><text x="670.0" y="194" font-family="ui-sans-serif,-apple-system,BlinkMacSystemFont,'Segoe UI',Roboto,Helvetica,Arial,sans-serif" font-size="19" font-weight="600" fill="#c084fc">GitHub</text><text x="640.0" y="228" font-family="ui-sans-serif,-apple-system,BlinkMacSystemFont,'Segoe UI',Roboto,Helvetica,Arial,sans-serif" font-size="19.0" fill="#cbd5e1">github.com/akxyverse</text></svg>