<svg xmlns="http://www.w3.org/2000/svg" viewBox="0 0 980 246" width="980" height="246" role="img" aria-label="Project links: the repository, the deployed app and the local development address"><defs><linearGradient id="edge" x1="0" y1="0" x2="1" y2="1"><stop offset="0%" stop-color="#3b82f6" stop-opacity=".85"/><stop offset="55%" stop-color="#a855f7" stop-opacity=".55"/><stop offset="100%" stop-color="#a855f7" stop-opacity=".8"/></linearGradient><linearGradient id="mark" x1="0" y1="0" x2="1" y2="1"><stop offset="0%" stop-color="#60a5fa"/><stop offset="100%" stop-color="#a855f7"/></linearGradient><linearGradient id="tile" x1="0" y1="0" x2="0" y2="1"><stop offset="0%" stop-color="#101a2e"/><stop offset="100%" stop-color="#0d1526"/></linearGradient></defs><rect width="980" height="246" rx="18" fill="#080b12"/><rect x="1.1" y="1.1" width="977.8" height="243.8" rx="17" fill="#0b0f1a" stroke="url(#edge)" stroke-width="1.4"/><rect x="40" y="38" width="92" height="92" rx="22.1" fill="url(#tile)" stroke="#1b2438"/><g transform="translate(60.2 58.2) scale(2.147)" fill="none" stroke="url(#mark)" stroke-width="1.9" stroke-linecap="round" stroke-linejoin="round"><circle cx="12" cy="12" r="8.6"/><path d="M3.4 12h17.2"/><path d="M12 3.4c2.2 2.3 3.4 5.4 3.4 8.6S14.2 18.3 12 20.6"/><path d="M12 3.4C9.8 5.7 8.6 8.8 8.6 12s1.2 6.3 3.4 8.6"/></g><text x="160" y="78" font-family="ui-sans-serif,-apple-system,BlinkMacSystemFont,'Segoe UI',Roboto,Helvetica,Arial,sans-serif" font-size="34" font-weight="700" fill="#f1f5f9">Project Link</text><text x="160" y="112" font-family="ui-sans-serif,-apple-system,BlinkMacSystemFont,'Segoe UI',Roboto,Helvetica,Arial,sans-serif" font-size="20" fill="#94a3b8">Where the code lives, and where it runs.</text><line x1="40" y1="152" x2="940" y2="152" stroke="#1b2438" stroke-width="1.2"/><g transform="translate(40.0 179.0) scale(0.860)" fill="none" stroke="#60a5fa" stroke-width="1.8" stroke-linecap="round" stroke-linejoin="round"><path d="M6.4 6.6v10.8"/><circle cx="6.4" cy="4.6" r="2.1"/><circle cx="6.4" cy="19.4" r="2.1"/><circle cx="17.6" cy="6" r="2.1"/><path d="M17.6 8.1v3.3a4.4 4.4 0 0 1-4.4 4.4H8.5"/></g><text x="70.0" y="194" font-family="ui-sans-serif,-apple-system,BlinkMacSystemFont,'Segoe UI',Roboto,Helvetica,Arial,sans-serif" font-size="19.0" font-weight="600" fill="#60a5fa">Repository</text><text x="40.0" y="228" font-family="ui-sans-serif,-apple-system,BlinkMacSystemFont,'Segoe UI',Roboto,Helvetica,Arial,sans-serif" font-size="16.2" fill="#cbd5e1">wealthwise-advisors/trading-platform</text><line x1="353.0" y1="170" x2="353.0" y2="234" stroke="#1b2438" stroke-width="1.2"/><g transform="translate(365.0 179.0) scale(0.860)" fill="none" stroke="#60a5fa" stroke-width="1.8" stroke-linecap="round" stroke-linejoin="round"><circle cx="12" cy="12" r="8.6"/><path d="M3.4 12h17.2"/><path d="M12 3.4c2.2 2.3 3.4 5.4 3.4 8.6S14.2 18.3 12 20.6"/><path d="M12 3.4C9.8 5.7 8.6 8.8 8.6 12s1.2 6.3 3.4 8.6"/></g><text x="395.0" y="194" font-family="ui-sans-serif,-apple-system,BlinkMacSystemFont,'Segoe UI',Roboto,Helvetica,Arial,sans-serif" font-size="19.0" font-weight="600" fill="#60a5fa">Live app</text><text x="365.0" y="228" font-family="ui-sans-serif,-apple-system,BlinkMacSystemFont,'Segoe UI',Roboto,Helvetica,Arial,sans-serif" font-size="19.0" fill="#cbd5e1">3-218-23-37.sslip.io</text><line x1="678.0" y1="170" x2="678.0" y2="234" stroke="#1b2438" stroke-width="1.2"/><g transform="translate(690.0 179.0) scale(0.860)" fill="none" stroke="#60a5fa" stroke-width="1.8" stroke-linecap="round" stroke-linejoin="round"><path d="M8.6 8.4 4.6 12l4 3.6"/><path d="M15.4 8.4 19.4 12l-4 3.6"/><path d="M13.4 5.6 10.6 18.4"/></g><text x="720.0" y="194" font-family="ui-sans-serif,-apple-system,BlinkMacSystemFont,'Segoe UI',Roboto,Helvetica,Arial,sans-serif" font-size="19.0" font-weight="600" fill="#60a5fa">Local</text><text x="690.0" y="228" font-family="ui-sans-serif,-apple-system,BlinkMacSystemFont,'Segoe UI',Roboto,Helvetica,Arial,sans-serif" font-size="19.0" fill="#cbd5e1">localhost:5173</text></svg>